<svg width="47" height="48" viewBox="0 0 47 48" fill="none" xmlns="http://www.w3.org/2000/svg">
<path opacity="0.3" d="M1.375 40.0723C0.583333 39.3223 0.1875 38.4473 0.1875 37.4473C0.1875 36.4056 0.583333 35.4889 1.375 34.6973L12.5 23.6973L1.375 12.5723C0.625 11.8223 0.229167 10.9473 0.1875 9.94727C0.1875 8.9056 0.583333 7.98893 1.375 7.19727L6.625 1.94727C7.375 1.19727 8.29167 0.822266 9.375 0.822266C10.4583 0.822266 11.375 1.19727 12.125 1.94727L23.125 12.9473L34.75 1.44727C35.5 0.697266 36.3958 0.322266 37.4375 0.322266C38.4792 0.280599 39.375 0.655599 40.125 1.44727L45.375 6.69727C46.125 7.44727 46.5 8.3431 46.5 9.38477C46.5417 10.3848 46.1667 11.2806 45.375 12.0723L33.75 23.6973L45.375 35.2598C46.125 36.0098 46.5 36.9056 46.5 37.9473C46.5417 38.9473 46.1667 39.8431 45.375 40.6348L40.125 46.0098C39.375 46.7598 38.4792 47.1348 37.4375 47.1348C36.4375 47.1348 35.5417 46.7598 34.75 46.0098L23.125 34.3223L12.125 45.3223C11.375 46.0723 10.4583 46.4681 9.375 46.5098C8.29167 46.5098 7.375 46.1139 6.625 45.3223L1.375 40.0723Z" fill="#DB0D27"/>
</svg>
