<svg width="47" height="75" viewBox="0 0 47 75" fill="none" xmlns="http://www.w3.org/2000/svg">
<path d="M45.0172 1.82257C44.3941 1.24506 43.6527 0.786678 42.8358 0.473865C42.019 0.161053 41.1429 0 40.258 0C39.3731 0 38.4969 0.161053 37.6801 0.473865C36.8632 0.786678 36.1218 1.24506 35.4987 1.82257L1.98279 32.6302C1.35451 33.203 0.855833 33.8845 0.515521 34.6353C0.175209 35.3861 0 36.1915 0 37.0049C0 37.8183 0.175209 38.6236 0.515521 39.3745C0.855833 40.1253 1.35451 40.8068 1.98279 41.3796L35.4987 72.1872C36.1218 72.7647 36.8632 73.2231 37.6801 73.5359C38.4969 73.8487 39.3731 74.0098 40.258 74.0098C41.1429 74.0098 42.019 73.8487 42.8358 73.5359C43.6527 73.2231 44.3941 72.7647 45.0172 72.1872C45.6455 71.6144 46.1442 70.9329 46.4845 70.1821C46.8248 69.4313 47 68.6259 47 67.8125C47 66.9991 46.8248 66.1938 46.4845 65.4429C46.1442 64.6921 45.6455 64.0106 45.0172 63.4378L16.1935 37.0049L45.0172 10.5719C45.6455 9.99914 46.1442 9.31767 46.4845 8.56683C46.8248 7.81599 47 7.01065 47 6.19725C47 5.38386 46.8248 4.57851 46.4845 3.82767C46.1442 3.07683 45.6455 2.39536 45.0172 1.82257Z" fill="#0059DF"/>
</svg>
