<svg width="47" height="75" viewBox="0 0 47 75" fill="none" xmlns="http://www.w3.org/2000/svg">
<path d="M11.5013 1.81231L45.0172 32.6243C45.6455 33.1972 46.1442 33.8788 46.4845 34.6297C46.8248 35.3806 47 36.1861 47 36.9996C47 37.8131 46.8248 38.6186 46.4845 39.3695C46.1442 40.1205 45.6455 40.8021 45.0172 41.3749L11.5013 72.1869C10.8782 72.7645 10.1368 73.223 9.31994 73.5358C8.50309 73.8487 7.62695 74.0098 6.74205 74.0098C5.85715 74.0098 4.981 73.8487 4.16416 73.5358C3.34731 73.223 2.60594 72.7645 1.98279 72.1869C1.35451 71.6141 0.855837 70.9325 0.515525 70.1815C0.175214 69.4306 0 68.6251 0 67.8116C0 66.9981 0.175214 66.1927 0.515525 65.4417C0.855837 64.6908 1.35451 64.0092 1.98279 63.4363L30.8065 36.9996L1.98279 10.5629C0.720555 9.40252 0.011441 7.82867 0.011441 6.18762C0.011441 5.37505 0.185529 4.57043 0.523774 3.81972C0.862018 3.069 1.35779 2.38688 1.98279 1.81231C3.24502 0.651908 4.95698 0 6.74205 0C7.62592 0 8.50115 0.160049 9.31775 0.471006C10.1343 0.781963 10.8763 1.23774 11.5013 1.81231Z" fill="#0059DF"/>
</svg>
