<svg width="131" height="138" viewBox="0 0 131 138" fill="none" xmlns="http://www.w3.org/2000/svg">
<path opacity="0.9" d="M28.912 137.842C28.912 136.24 28.734 135.528 28.022 135.528L23.928 137.486C23.928 136.596 23.394 136.062 22.504 135.706L21.08 135.528C19.834 135.528 19.3 135.706 17.52 136.774C16.986 135.706 16.274 134.46 15.74 133.392C11.112 124.492 6.30596 111.142 4.16996 105.268C3.10196 102.242 2.03396 96.0118 0.787961 86.5778C2.21196 87.4678 3.27996 87.8238 3.81396 87.8238C4.52596 87.8238 5.41596 86.5778 6.12796 84.0858C6.48396 84.6198 7.19596 84.7978 8.08596 84.7978C8.61996 84.7978 9.33196 84.6198 9.68796 84.0858L12.536 79.8138L15.74 80.8818H15.918C16.274 80.8818 16.808 80.3478 17.698 79.8138C18.588 79.2798 19.3 78.9238 19.834 78.9238L20.368 79.1018C23.216 80.5258 25.174 83.0178 26.064 86.9338C28.2 96.0118 30.158 100.462 32.472 100.462C34.43 100.462 37.1 98.1478 39.948 93.6978C42.796 89.2478 45.644 83.1958 48.848 75.8978C49.026 77.3218 49.204 78.0338 49.56 78.0338C50.628 78.0338 53.298 71.8038 59.884 61.3018C69.674 45.4598 93.882 15.0218 100.112 10.7498C104.74 7.54576 108.3 4.51976 110.792 1.84976C110.436 3.62976 110.08 4.87576 110.08 5.40976C110.08 5.94376 110.436 6.12176 110.792 6.12176L115.776 3.62976V4.34176C115.776 5.23176 115.954 5.76576 116.488 5.76576C117.2 5.76576 120.048 2.91776 120.404 1.84976L120.048 4.34176L126.1 0.781764L124.676 3.98576C126.456 2.73976 127.88 2.02776 128.77 2.02776C129.66 2.02776 130.194 3.45176 130.194 4.34176C130.194 5.76576 128.948 7.72376 126.99 10.2158C124.854 13.0638 119.514 18.5818 103.494 36.9158C96.552 44.7478 65.758 86.5778 59.884 96.5458L48.848 115.236C44.042 123.246 41.016 128.408 39.414 130.366C37.812 132.324 35.854 134.282 33.54 136.062L31.938 135.172L30.514 136.062L28.912 137.842Z" fill="#0059DF"/>
</svg>
